<?xml version="1.0" standalone="no"?>
<!DOCTYPE svg PUBLIC "-//W3C//DTD SVG 20010904//EN"
 "http://www.w3.org/TR/2001/REC-SVG-20010904/DTD/svg10.dtd">
<svg version="1.0" xmlns="http://www.w3.org/2000/svg"
 width="1204.000000pt" height="1204.000000pt" viewBox="0 0 1204.000000 1204.000000"
 preserveAspectRatio="xMidYMid meet">
<metadata>
Created by potrace 1.11, written by Peter Selinger 2001-2013
</metadata>
<g transform="translate(0.000000,1204.000000) scale(0.100000,-0.100000)"
fill="#000000" stroke="none">
<path d="M5728 12015 c-1 -1 -55 -5 -118 -9 -63 -3 -126 -8 -140 -10 -14 -2
-52 -7 -85 -10 -33 -4 -78 -9 -100 -11 -22 -3 -60 -7 -85 -10 -25 -3 -56 -7
-70 -10 -14 -2 -41 -7 -60 -9 -38 -6 -44 -7 -205 -37 -90 -17 -189 -39 -335
-74 -183 -44 -592 -178 -707 -230 -17 -8 -36 -15 -42 -15 -6 0 -19 -4 -29 -10
-9 -5 -37 -18 -62 -28 -204 -87 -464 -216 -660 -328 -74 -43 -136 -81 -138
-86 -2 -4 -8 -8 -13 -8 -9 0 -281 -175 -312 -200 -7 -5 -70 -53 -142 -106
-388 -288 -773 -660 -1086 -1049 -35 -44 -77 -98 -94 -120 -16 -22 -33 -44
-37 -50 -217 -272 -543 -838 -707 -1225 -118 -279 -274 -746 -307 -919 -3 -14
-7 -28 -9 -31 -2 -4 -7 -21 -10 -38 -3 -17 -16 -81 -29 -144 -14 -62 -27 -131
-30 -153 -4 -23 -8 -52 -11 -65 -12 -63 -44 -292 -50 -355 -4 -38 -8 -80 -10
-91 -26 -166 -26 -963 0 -1126 2 -13 6 -54 10 -91 3 -37 8 -76 10 -85 1 -9 6
-46 10 -82 4 -36 8 -67 10 -70 2 -3 6 -30 10 -60 17 -144 92 -483 156 -703
251 -875 699 -1684 1304 -2357 78 -87 413 -419 490 -486 550 -478 1108 -821
1765 -1084 181 -73 465 -168 610 -205 342 -88 560 -132 785 -160 28 -4 60 -8
73 -10 13 -2 53 -7 90 -10 37 -4 83 -9 102 -11 217 -26 949 -25 1111 1 13 2
54 6 91 10 37 3 77 8 90 10 13 2 46 6 73 10 86 10 345 55 460 80 503 109 964
273 1440 515 204 103 487 265 493 282 2 4 8 8 13 8 13 0 242 156 378 258 239
179 383 305 636 557 156 155 197 198 305 320 72 82 175 211 266 334 52 69 97
131 102 136 46 60 292 446 292 459 0 2 23 43 51 92 114 197 321 644 374 809 7
22 30 85 50 140 20 55 45 132 56 170 54 187 100 353 105 380 3 17 9 46 14 65
23 92 69 335 85 450 8 56 12 84 19 135 4 22 9 65 11 95 3 30 7 75 10 100 27
241 27 900 0 1115 -2 17 -6 61 -10 98 -3 37 -8 76 -10 85 -1 9 -6 42 -9 73 -4
31 -8 65 -10 75 -2 11 -9 53 -16 94 -16 100 -16 103 -35 195 -9 44 -18 91 -21
105 -45 238 -195 721 -312 1000 -79 189 -97 228 -202 435 -235 464 -504 861
-854 1260 -104 119 -468 478 -577 570 -170 142 -190 159 -323 259 -117 88
-447 312 -486 329 -8 4 -28 16 -45 26 -239 148 -664 353 -965 464 -128 47
-341 117 -476 156 -106 30 -128 36 -184 47 -14 3 -59 14 -100 24 -41 10 -88
21 -105 24 -16 3 -55 10 -85 16 -74 15 -204 37 -263 45 -27 3 -56 8 -65 10
-10 1 -46 6 -82 10 -36 4 -72 8 -80 10 -8 2 -51 6 -95 10 -44 3 -107 9 -140
12 -67 6 -711 14 -717 8z m62 -3521 c256 -70 455 -255 547 -509 43 -119 57
-284 34 -410 -18 -96 -18 -97 -40 -153 -62 -156 -91 -194 -409 -520 -143 -147
-299 -307 -347 -357 -102 -105 -581 -598 -705 -725 -47 -48 -197 -203 -335
-345 -137 -142 -293 -301 -345 -355 -133 -137 -577 -594 -684 -704 -290 -299
-363 -371 -414 -410 -171 -128 -399 -179 -608 -136 -30 6 -55 11 -56 10 -9 -4
-161 68 -207 97 -123 79 -244 225 -304 366 -54 129 -76 293 -57 423 28 195
106 345 267 510 54 56 209 216 344 355 136 140 288 297 339 349 51 52 213 219
360 370 147 151 301 309 341 351 41 42 184 190 319 328 135 139 289 298 344
354 773 798 963 990 1001 1009 17 9 50 27 75 40 52 29 132 56 210 73 78 16
253 11 330 -11z m3125 2 c156 -37 311 -136 416 -266 210 -259 242 -619 83
-909 -46 -84 -83 -132 -153 -201 -31 -31 -148 -152 -261 -269 -234 -244 -283
-294 -649 -670 -146 -151 -302 -311 -346 -356 -44 -45 -198 -203 -342 -351
-144 -148 -307 -316 -363 -374 -56 -58 -215 -222 -355 -365 -139 -143 -292
-300 -339 -350 -218 -226 -370 -375 -387 -380 -11 -4 -19 -10 -19 -14 0 -4
-38 -27 -84 -50 -222 -110 -468 -112 -685 -5 -222 109 -392 336 -434 581 -38
216 9 432 133 613 41 60 72 92 446 477 139 142 293 301 344 353 51 52 214 220
364 374 149 153 311 319 359 370 49 50 207 212 350 360 144 148 298 306 342
351 44 46 200 206 346 356 147 151 303 312 348 358 44 47 81 81 81 77 0 -4 18
15 41 44 71 90 232 198 344 231 131 39 293 45 420 15z m-30 -3041 c95 -21 226
-78 295 -130 324 -241 427 -679 243 -1037 -220 -429 -740 -562 -1135 -290
-154 106 -285 305 -322 487 -15 77 -17 96 -16 180 1 111 3 123 29 219 81 294
332 527 622 575 58 9 234 7 284 -4z"/>
</g>
</svg>
